<svg xmlns="http://www.w3.org/2000/svg" viewBox="0 0 920 280" font-family="DejaVu Sans, Arial, sans-serif">
  <defs>
    <marker id="arrow" markerWidth="8" markerHeight="8" refX="6" refY="3" orient="auto">
      <path d="M0,0 L6,3 L0,6 Z" fill="#6f42c1"/>
    </marker>
  </defs>
  <rect width="920" height="280" fill="#f8fafc"/>
  <text x="460" y="28" text-anchor="middle" font-size="16" font-weight="bold" fill="#1F4E79">Canjes Marketing vs Gastronom�a (sal�n)</text>
  <text x="460" y="48" text-anchor="middle" font-size="11" fill="#666">Marketing opera el recuadro inferior; gastronom�a gestiona jornada y turnos</text>
  <g font-size="11" fill="#17202A">
    <rect x="40" y="70" width="840" height="70" rx="8" fill="#e8f4fc" stroke="#2E75B6" stroke-dasharray="4"/>
    <text x="460" y="92" text-anchor="middle" font-weight="bold" fill="#2E75B6">Gastronom�a (encargado de sala)</text>
    <rect x="80" y="105" width="150" height="28" rx="4" fill="#d4edda" stroke="#28a745"/>
    <text x="155" y="123" text-anchor="middle">Jornada abierta</text>
    <rect x="280" y="105" width="150" height="28" rx="4" fill="#fff3cd" stroke="#ffc107"/>
    <text x="355" y="123" text-anchor="middle">Habilitaci�n turno</text>
    <rect x="480" y="105" width="150" height="28" rx="4" fill="#cce5ff" stroke="#007bff"/>
    <text x="555" y="123" text-anchor="middle">Facturaci�n sal�n</text>
    <rect x="680" y="105" width="150" height="28" rx="4" fill="#f8d7da" stroke="#dc3545"/>
    <text x="755" y="123" text-anchor="middle">Cierre jornada</text>

    <rect x="40" y="165" width="840" height="95" rx="8" fill="#f3ebff" stroke="#6f42c1"/>
    <text x="460" y="187" text-anchor="middle" font-weight="bold" fill="#6f42c1">Canjes Marketing (equipo Marketing)</text>
    <rect x="60" y="200" width="110" height="44" rx="6" fill="#fff" stroke="#6f42c1"/>
    <text x="115" y="218" text-anchor="middle" font-weight="bold">Login mozo</text>
    <text x="115" y="234" text-anchor="middle" font-size="10">Facturador</text>
    <line x1="170" y1="222" x2="200" y2="222" stroke="#6f42c1" marker-end="url(#arrow)"/>
    <rect x="200" y="200" width="110" height="44" rx="6" fill="#fff" stroke="#6f42c1"/>
    <text x="255" y="218" text-anchor="middle" font-weight="bold">Cargar SKU</text>
    <line x1="310" y1="222" x2="340" y2="222" stroke="#6f42c1" marker-end="url(#arrow)"/>
    <rect x="340" y="200" width="120" height="44" rx="6" fill="#fff" stroke="#6f42c1"/>
    <text x="400" y="218" text-anchor="middle" font-weight="bold">Cliente VIP</text>
    <line x1="460" y1="222" x2="490" y2="222" stroke="#6f42c1" marker-end="url(#arrow)"/>
    <rect x="490" y="200" width="110" height="44" rx="6" fill="#fff" stroke="#6f42c1"/>
    <text x="545" y="218" text-anchor="middle" font-weight="bold">F8 Facturar</text>
    <line x1="600" y1="222" x2="630" y2="222" stroke="#6f42c1" marker-end="url(#arrow)"/>
    <rect x="630" y="200" width="120" height="44" rx="6" fill="#fff" stroke="#6f42c1"/>
    <text x="690" y="218" text-anchor="middle" font-weight="bold">Entrega</text>
    <rect x="770" y="200" width="90" height="44" rx="6" fill="#e2d5f1" stroke="#6f42c1"/>
    <text x="815" y="218" text-anchor="middle" font-weight="bold">Listado</text>
    <text x="815" y="234" text-anchor="middle" font-size="10">consulta</text>
  </g>
</svg>
