<svg xmlns="http://www.w3.org/2000/svg" viewBox="0 0 920 520" width="920" height="520">
  <defs>
    <linearGradient id="hdr" x1="0" y1="0" x2="1" y2="0"><stop offset="0%" stop-color="#343a40"/><stop offset="100%" stop-color="#454d55"/></linearGradient>
    <filter id="sh" x="-2%" y="-2%" width="104%" height="104%"><feDropShadow dx="0" dy="4" stdDeviation="8" flood-opacity=".12"/></filter>
  </defs>
  <rect width="920" height="520" rx="12" fill="#f4f6f9" filter="url(#sh)"/>
  <rect x="0" y="0" width="920" height="48" rx="12" fill="url(#hdr)"/>
  <rect x="0" y="36" width="920" height="12" fill="url(#hdr)"/>
  <text x="24" y="30" fill="#fff" font-family="Segoe UI, system-ui, sans-serif" font-size="15" font-weight="600">Anita ERP</text>
  <text x="120" y="30" fill="#adb5bd" font-family="Segoe UI, system-ui, sans-serif" font-size="13">/ Compras / Circuito</text>
  <rect x="16" y="64" width="200" height="440" rx="8" fill="#fff" stroke="#dee2e6"/>
  <rect x="16" y="64" width="200" height="36" rx="8" fill="#17a2b8" opacity=".15"/>
  <text x="28" y="88" fill="#17a2b8" font-family="Segoe UI, system-ui, sans-serif" font-size="12" font-weight="600">Menú Compras</text>
  <rect x="232" y="64" width="672" height="440" rx="8" fill="#fff" stroke="#dee2e6"/>
  
  <rect x="270" y="130" width="100" height="44" rx="8" fill="#ffc107" opacity=".4" stroke="#ffc107"/>
  <text x="320" y="157" text-anchor="middle" fill="#856404" font-family="Segoe UI,sans-serif" font-size="10" font-weight="600">PENDIENTE</text>
  <path d="M370 152 H400" stroke="#adb5bd" stroke-width="2" marker-end="url(#ar)"/>
  <rect x="400" y="130" width="100" height="44" rx="8" fill="#17a2b8" opacity=".25" stroke="#17a2b8"/>
  <text x="450" y="157" text-anchor="middle" fill="#0c5460" font-family="Segoe UI,sans-serif" font-size="10" font-weight="600">EN COMPRAS</text>
  <path d="M500 152 H530" stroke="#adb5bd" stroke-width="2"/>
  <rect x="530" y="130" width="100" height="44" rx="8" fill="#6f42c1" opacity=".2" stroke="#6f42c1"/>
  <text x="580" y="152" text-anchor="middle" fill="#4a2c7a" font-family="Segoe UI,sans-serif" font-size="9" font-weight="600">ARBOL</text>
  <text x="580" y="165" text-anchor="middle" fill="#4a2c7a" font-family="Segoe UI,sans-serif" font-size="9" font-weight="600">APROBACIÓN</text>
  <path d="M630 152 H660" stroke="#adb5bd" stroke-width="2"/>
  <rect x="660" y="130" width="100" height="44" rx="8" fill="#28a745" opacity=".25" stroke="#28a745"/>
  <text x="710" y="157" text-anchor="middle" fill="#155724" font-family="Segoe UI,sans-serif" font-size="10" font-weight="600">APROBADA</text>
  <path d="M710 174 V210 H450 V246" stroke="#adb5bd" stroke-width="2" fill="none"/>
  <rect x="400" y="246" width="100" height="44" rx="8" fill="#007bff" opacity=".2" stroke="#007bff"/>
  <text x="450" y="268" text-anchor="middle" fill="#004085" font-family="Segoe UI,sans-serif" font-size="9" font-weight="600">ORDEN DE</text>
  <text x="450" y="281" text-anchor="middle" fill="#004085" font-family="Segoe UI,sans-serif" font-size="9" font-weight="600">COMPRA</text>

</svg>