<svg xmlns="http://www.w3.org/2000/svg" viewBox="0 0 720 280" width="720" height="280">
  <defs><marker id="a" markerWidth="8" markerHeight="8" refX="6" refY="3" orient="auto"><path d="M0,0 L6,3 L0,6 Z" fill="#495057"/></marker></defs>
  <rect width="720" height="280" fill="#f8f9fa"/>
  <text x="360" y="32" text-anchor="middle" fill="#1F4E79" font-family="Segoe UI,sans-serif" font-size="16" font-weight="600">Estados recepción proveedor</text>
  <rect x="40" y="80" width="120" height="44" rx="20" fill="#6c757d"/>
  <text x="100" y="107" text-anchor="middle" fill="#fff" font-family="Segoe UI,sans-serif" font-size="12">BORRADOR</text>
  <line x1="160" y1="102" x2="200" y2="102" stroke="#495057" marker-end="url(#a)"/>
  <text x="180" y="92" text-anchor="middle" fill="#495057" font-size="9">Confirmar</text>
  <rect x="200" y="80" width="130" height="44" rx="20" fill="#28a745"/>
  <text x="265" y="107" text-anchor="middle" fill="#fff" font-family="Segoe UI,sans-serif" font-size="12">CONFIRMADA</text>
  <line x1="330" y1="102" x2="370" y2="102" stroke="#495057" marker-end="url(#a)"/>
  <text x="350" y="92" text-anchor="middle" fill="#495057" font-size="9">Anular</text>
  <rect x="370" y="80" width="120" height="44" rx="20" fill="#343a40"/>
  <text x="430" y="107" text-anchor="middle" fill="#fff" font-family="Segoe UI,sans-serif" font-size="12">ANULADA</text>
  <rect x="200" y="170" width="130" height="44" rx="20" fill="#ffc107"/>
  <text x="265" y="190" text-anchor="middle" fill="#212529" font-family="Segoe UI,sans-serif" font-size="11">DEVOLUCIÓN</text>
  <text x="265" y="206" text-anchor="middle" fill="#6c757d" font-family="Segoe UI,sans-serif" font-size="9">Salida stock</text>
  <line x1="265" y1="124" x2="265" y2="170" stroke="#495057" marker-end="url(#a)"/>
  <text x="285" y="150" fill="#495057" font-size="9">Devolver</text>
  <line x1="160" y1="102" x2="100" y2="170" stroke="#495057" stroke-dasharray="4"/>
  <text x="70" y="150" fill="#dc3545" font-size="9">Eliminar</text>
  <rect x="40" y="160" width="80" height="36" rx="6" fill="#fff" stroke="#dc3545"/>
  <text x="80" y="182" text-anchor="middle" fill="#dc3545" font-size="10">Borrador</text>
</svg>
